<svg width="168" height="28" viewBox="0 0 168 28" fill="none" xmlns="http://www.w3.org/2000/svg">
<path d="M44.736 19.3768C43.392 20.7971 41.664 21.4058 39.744 21.4058C34.848 21.4058 32.832 17.8551 32.832 14.3044C32.832 10.6522 35.04 7 39.744 7C41.472 7 43.2 7.71015 44.544 9.13045L42.912 10.8551C42.048 9.94203 40.896 9.53624 39.744 9.53624C36.576 9.53624 35.232 12.0725 35.232 14.3044C35.232 16.6377 36.48 18.971 39.744 18.971C40.896 18.971 42.144 18.4638 43.008 17.5507L44.736 19.3768Z" fill="#003566"/>
<path d="M58.9439 14.3044C58.9439 17.8551 56.8319 21.4058 52.2239 21.4058C47.6159 21.4058 45.5039 17.9565 45.5039 14.3044C45.5039 10.6522 47.7119 7 52.2239 7C56.7359 7 59.04 10.6522 58.9439 14.3044ZM47.9999 14.3044C48.0959 16.5362 49.2479 18.971 52.3199 18.971C55.3919 18.971 56.544 16.5362 56.6399 14.3044C56.6399 11.971 55.4879 9.33331 52.3199 9.33331C49.152 9.33331 47.9039 11.971 47.9999 14.3044Z" fill="#001D3D"/>
<path d="M72.2882 14.1015C72.3841 17.5508 70.3681 21.1015 65.7599 21.1015C64.1278 21.1015 62.2079 21.1015 60.6719 21.1015V7.30438C62.3039 7.30438 64.2239 7.30438 65.7599 7.30438C70.1756 7.30438 72.1916 10.6522 72.2882 14.1015ZM63.0719 18.5652H65.7599C68.7359 18.5652 69.8879 16.2319 69.8879 14C69.7919 11.8696 68.6399 9.73919 65.7599 9.73919H63.0719V18.5652Z" fill="#003566"/>
<path d="M83.6158 21.1015H73.8242C73.8242 16.5363 73.8242 11.8696 73.8242 7.30438H83.6158V9.84062H76.3204V12.9855H83.424V15.4203H76.3204V18.5652H83.6158V21.1015Z" fill="#003566"/>
<path d="M98.1121 9.94204C97.1524 8.31888 95.6159 8.11595 94.0801 8.11595C92.5443 8.11595 90.144 8.72467 90.144 10.9566C90.144 12.6811 91.9682 13.087 94.176 13.5942C96.6722 14.1014 99.2643 14.6087 99.2643 17.5508C99.2643 20.6957 96.2879 21.4058 94.0801 21.4058C92.0641 21.4058 89.7604 20.4928 88.7041 18.3623L89.5679 17.8551C90.3358 19.5797 92.4484 20.3913 93.9842 20.3913C95.6159 20.3913 98.1121 19.8841 98.1121 17.4493C98.1121 15.4203 96.0002 14.9131 93.7924 14.5072C91.3921 14 88.9918 13.4928 88.9918 10.9566C89.0884 8.01452 91.9682 7.10144 94.0801 7.10144C95.9043 7.10144 97.536 7.4058 98.88 9.43482L98.1121 9.94204Z" fill="#003566"/>
<path d="M114.048 14.2029C114.048 17.8551 111.839 21.3044 107.424 21.3044C103.008 21.3044 100.8 17.7536 100.8 14.1014C100.8 10.3478 103.008 7 107.424 7C111.839 7.10143 114.048 10.4493 114.048 14.2029ZM101.856 14.2029C101.856 17.3478 103.776 20.3914 107.424 20.3914C111.167 20.3914 113.088 17.3478 113.088 14.2029C113.088 10.9565 111.264 8.11594 107.424 8.11594C103.584 8.11594 101.856 10.9565 101.856 14.2029Z" fill="#003566"/>
<path d="M127.2 19.1739C125.856 20.5942 124.128 21.2029 122.4 21.2029C117.984 21.2029 115.68 17.9565 115.68 14.2029C115.68 10.5508 117.887 7.10144 122.4 7.10144C124.128 7.10144 125.856 7.81159 127.2 9.13046L126.528 9.73911C125.376 8.52174 123.935 8.01452 122.496 8.01452C118.656 8.01452 116.736 10.8551 116.736 14.2029C116.736 17.4493 118.752 20.2899 122.496 20.2899C123.935 20.2899 125.472 19.6811 126.623 18.5652L127.2 19.1739Z" fill="#003566"/>
<path d="M129.6 21.1015V7.30438H130.56V21.1015H129.6Z" fill="#003566"/>
<path d="M134.496 13.6957H142.176V14.7102H134.496V20.1884H142.752V21.203H133.536V7.30438H142.56V8.31889H134.496V13.6957Z" fill="#003566"/>
<path d="M149.472 8.21739H144.768V7.30438H155.232V8.21739H150.528V21.1015H149.472V8.21739Z" fill="#003566"/>
<path d="M161.856 15.5218L156.768 7.30438H157.92L162.336 14.6087L166.752 7.30438H167.904L162.816 15.5218V21H161.76V15.5218H161.856Z" fill="#003566"/>
<path d="M10.752 28L0 20.7971V6.7971L10.752 0L21.888 6.7971V20.7971L10.752 28ZM1.632 19.7826L10.752 25.9711L20.256 19.7826V7.71015L10.752 1.92753L1.632 7.71015V19.7826Z" fill="#003566"/>
<path d="M7.00807 16.2319L5.95208 17.3478L2.97607 14.2029V14L5.95208 10.855L7.00807 11.9711V12.0725L4.99207 14.1014L7.00807 16.2319Z" fill="#003566"/>
<path d="M13.5359 8.01453L9.21596 19.5797H7.58398L11.904 8.01453H13.5359Z" fill="#003566"/>
<path d="M16.224 14.2029L14.208 12.1739V12.0725L15.264 10.9565L18.24 14.1015V14.3044L15.264 17.4493L14.208 16.3334V16.2319L16.224 14.2029Z" fill="#003566"/>
</svg>
